<svg preserveAspectRatio="none" width="100%" height="100%" overflow="visible" style="display: block;" viewBox="0 0 120 54" fill="none" xmlns="http://www.w3.org/2000/svg">
<path id="Subtract" d="M120 54H0V0H120V54ZM10.0723 43H18.1689V40.3008H12.7715V29.5059H10.0723V43ZM23.5664 43H26.2656V29.5059H23.5664V43ZM31.6631 43H39.7598V40.3008H42.458V32.2051H39.7598V29.5059H31.6631V43ZM47.8555 43H50.5547V37.6025H53.2539V40.3008H55.9521V34.9033H58.6514V32.2051H55.9521V29.5059H47.8555V43ZM55.9521 43H58.6514V40.3008H55.9521V43ZM66.7471 32.2051H64.0488V43H66.7471V37.6025H72.1445V43H74.8438V32.2051H72.1445V29.5059H66.7471V32.2051ZM80.2412 43H82.9404V37.6025H85.6387V40.3008H88.3379V34.9033H91.0361V32.2051H88.3379V29.5059H80.2412V43ZM88.3379 43H91.0361V40.3008H88.3379V43ZM101.832 43H104.53V34.9033H101.832V43ZM39.6514 40.3008H34.3623V37.6025H39.6514V40.3008ZM39.6514 34.9033H34.3623V32.2051H39.6514V34.9033ZM55.8447 34.9033H50.5547V32.2051H55.8447V34.9033ZM72.1445 34.9033H66.7471V32.3125H72.1445V34.9033ZM88.2295 34.9033H82.9404V32.2051H88.2295V34.9033ZM99.1328 34.9033H101.832V32.2051H99.1328V34.9033ZM104.53 34.9033H107.229V32.2051H104.53V34.9033ZM96.4346 32.2051H99.1328V29.5059H96.4346V32.2051ZM107.229 32.2051H109.928V29.5059H107.229V32.2051ZM9.69531 11V24.4941H17.791V21.7949H20.4902V13.6992H17.791V11H9.69531ZM28.2627 24.4941H30.9609V11H28.2627V24.4941ZM41.4326 24.4941H46.8301V21.7949H41.4326V24.4941ZM57.3018 24.4941H60V11H57.3018V24.4941ZM67.7725 13.6992H70.4717V24.4941H73.1709V13.6992H75.8691V11H67.7725V13.6992ZM86.3408 13.6992H83.6416V24.4941H86.3408V19.0967H91.7383V24.4941H94.4365V13.6992H91.7383V11H86.3408V13.6992ZM102.209 24.4941H110.306V21.7949H104.908V11H102.209V24.4941ZM17.6836 13.6992V21.7949H12.3936V13.6992H17.6836ZM38.7334 21.7949H41.4326V13.6992H38.7334V21.7949ZM44.1309 19.0967H46.8301V21.7949H49.5293V16.3975H44.1309V19.0967ZM91.7383 16.3975H86.3408V13.8066H91.7383V16.3975ZM41.4326 13.6992H49.5293V11H41.4326V13.6992Z" fill="var(--fill-0, #004BEC)"/>
</svg>
