<svg preserveAspectRatio="none" width="100%" height="100%" overflow="visible" style="display: block;" viewBox="0 0 80 36" fill="none" xmlns="http://www.w3.org/2000/svg">
<g id="Image (Digital Library)" clip-path="url(#clip0_0_18)">
<path id="Subtract" d="M80 36H0V0H80V36ZM6.71487 28.6667H12.1126V26.8672H8.51433V19.6706H6.71487V28.6667ZM15.7109 28.6667H17.5104V19.6706H15.7109V28.6667ZM21.1087 28.6667H26.5065V26.8672H28.3053V21.4701H26.5065V19.6706H21.1087V28.6667ZM31.9037 28.6667H33.7031V25.0683H35.5026V26.8672H37.3014V23.2689H39.1009V21.4701H37.3014V19.6706H31.9037V28.6667ZM37.3014 28.6667H39.1009V26.8672H37.3014V28.6667ZM44.4981 21.4701H42.6992V28.6667H44.4981V25.0683H48.0963V28.6667H49.8959V21.4701H48.0963V19.6706H44.4981V21.4701ZM53.4941 28.6667H55.2936V25.0683H57.0925V26.8672H58.8919V23.2689H60.6907V21.4701H58.8919V19.6706H53.4941V28.6667ZM58.8919 28.6667H60.6907V26.8672H58.8919V28.6667ZM67.888 28.6667H69.6867V23.2689H67.888V28.6667ZM26.4343 26.8672H22.9082V25.0683H26.4343V26.8672ZM26.4343 23.2689H22.9082V21.4701H26.4343V23.2689ZM37.2298 23.2689H33.7031V21.4701H37.2298V23.2689ZM48.0963 23.2689H44.4981V21.5417H48.0963V23.2689ZM58.8197 23.2689H55.2936V21.4701H58.8197V23.2689ZM66.0885 23.2689H67.888V21.4701H66.0885V23.2689ZM69.6867 23.2689H71.486V21.4701H69.6867V23.2689ZM64.2897 21.4701H66.0885V19.6706H64.2897V21.4701ZM71.486 21.4701H73.2853V19.6706H71.486V21.4701ZM6.46354 7.33333V16.3294H11.8607V14.5299H13.6601V9.1328H11.8607V7.33333H6.46354ZM18.8418 16.3294H20.6406V7.33333H18.8418V16.3294ZM27.6217 16.3294H31.2201V14.5299H27.6217V16.3294ZM38.2012 16.3294H40V7.33333H38.2012V16.3294ZM45.1817 9.1328H46.9811V16.3294H48.7806V9.1328H50.5794V7.33333H45.1817V9.1328ZM57.5605 9.1328H55.7611V16.3294H57.5605V12.7311H61.1589V16.3294H62.9577V9.1328H61.1589V7.33333H57.5605V9.1328ZM68.1393 16.3294H73.5373V14.5299H69.9387V7.33333H68.1393V16.3294ZM11.7891 9.1328V14.5299H8.2624V9.1328H11.7891ZM25.8223 14.5299H27.6217V9.1328H25.8223V14.5299ZM29.4206 12.7311H31.2201V14.5299H33.0195V10.9317H29.4206V12.7311ZM61.1589 10.9317H57.5605V9.2044H61.1589V10.9317ZM27.6217 9.1328H33.0195V7.33333H27.6217V9.1328Z" fill="var(--fill-0, #004BEC)"/>
</g>
<defs>
<clipPath id="clip0_0_18">
<rect width="80" height="36" fill="white"/>
</clipPath>
</defs>
</svg>
