<svg preserveAspectRatio="none" width="100%" height="100%" overflow="visible" style="display: block;" viewBox="0 0 24 24" fill="none" xmlns="http://www.w3.org/2000/svg">
<g id="Slideshow">
<path id="Vector" d="M19.5 6V18C19.5 18.3978 19.342 18.7794 19.0607 19.0607C18.7794 19.342 18.3978 19.5 18 19.5H6C5.60218 19.5 5.22064 19.342 4.93934 19.0607C4.65804 18.7794 4.5 18.3978 4.5 18V6C4.5 5.60218 4.65804 5.22064 4.93934 4.93934C5.22064 4.65804 5.60218 4.5 6 4.5H18C18.3978 4.5 18.7794 4.65804 19.0607 4.93934C19.342 5.22064 19.5 5.60218 19.5 6ZM21.75 4.5C21.5511 4.5 21.3603 4.57902 21.2197 4.71967C21.079 4.86032 21 5.05109 21 5.25V18.75C21 18.9489 21.079 19.1397 21.2197 19.2803C21.3603 19.421 21.5511 19.5 21.75 19.5C21.9489 19.5 22.1397 19.421 22.2803 19.2803C22.421 19.1397 22.5 18.9489 22.5 18.75V5.25C22.5 5.05109 22.421 4.86032 22.2803 4.71967C22.1397 4.57902 21.9489 4.5 21.75 4.5ZM2.25 4.5C2.05109 4.5 1.86032 4.57902 1.71967 4.71967C1.57902 4.86032 1.5 5.05109 1.5 5.25V18.75C1.5 18.9489 1.57902 19.1397 1.71967 19.2803C1.86032 19.421 2.05109 19.5 2.25 19.5C2.44891 19.5 2.63968 19.421 2.78033 19.2803C2.92098 19.1397 3 18.9489 3 18.75V5.25C3 5.05109 2.92098 4.86032 2.78033 4.71967C2.63968 4.57902 2.44891 4.5 2.25 4.5Z" fill="var(--fill-0, black)"/>
</g>
</svg>
