<svg preserveAspectRatio="none" width="100%" height="100%" overflow="visible" style="display: block;" viewBox="0 0 24 24" fill="none" xmlns="http://www.w3.org/2000/svg">
<g id="Slideshow">
<path id="Vector" d="M18 4.5H6C5.60218 4.5 5.22064 4.65804 4.93934 4.93934C4.65804 5.22064 4.5 5.60218 4.5 6V18C4.5 18.3978 4.65804 18.7794 4.93934 19.0607C5.22064 19.342 5.60218 19.5 6 19.5H18C18.3978 19.5 18.7794 19.342 19.0607 19.0607C19.342 18.7794 19.5 18.3978 19.5 18V6C19.5 5.60218 19.342 5.22064 19.0607 4.93934C18.7794 4.65804 18.3978 4.5 18 4.5ZM18 18H6V6H18V18ZM22.5 5.25V18.75C22.5 18.9489 22.421 19.1397 22.2803 19.2803C22.1397 19.421 21.9489 19.5 21.75 19.5C21.5511 19.5 21.3603 19.421 21.2197 19.2803C21.079 19.1397 21 18.9489 21 18.75V5.25C21 5.05109 21.079 4.86032 21.2197 4.71967C21.3603 4.57902 21.5511 4.5 21.75 4.5C21.9489 4.5 22.1397 4.57902 22.2803 4.71967C22.421 4.86032 22.5 5.05109 22.5 5.25ZM3 5.25V18.75C3 18.9489 2.92098 19.1397 2.78033 19.2803C2.63968 19.421 2.44891 19.5 2.25 19.5C2.05109 19.5 1.86032 19.421 1.71967 19.2803C1.57902 19.1397 1.5 18.9489 1.5 18.75V5.25C1.5 5.05109 1.57902 4.86032 1.71967 4.71967C1.86032 4.57902 2.05109 4.5 2.25 4.5C2.44891 4.5 2.63968 4.57902 2.78033 4.71967C2.92098 4.86032 3 5.05109 3 5.25Z" fill="var(--fill-0, black)"/>
</g>
</svg>
